PathFileType	4	(X/Y/Z)	Patient4_TMGait_0pt4_03_left_26.trc.trc
DataRate	CameraRate	NumFrames	NumMarkers	Units	OrigDataRate	OrigDataStartFrame	OrigNumFrames
75.675675675676	75.675675675676	4	33	mm	75.675675675676	71	       141
Frame#	Time	Sacral			L.Shoulder			Chest			R.Shoulder			Neck			R.ASIS			L.ASIS			R.Thigh.Superior			R.Thigh.Lateral			R.Thigh.Inferior			R.Patella			L.Thigh.Superior			L.Thigh.Lateral			L.Thigh.Inferior			L.Patella			L.Shank.Superior			L.Shank.Lateral			L.Shank.Inferior			R.Shank.Superior			R.Shank.Lateral			R.Shank.Inferior			R.Heel			R.Midfoot.Superior			R.Midfoot.Lateral			R.Toe			L.Heel			L.Midfoot.Lateral			L.Midfoot.Superior			L.Toe			L.Elbow			L.Wrist			R.Elbow			R.Wrist			
		X1	Y1	Z1	X2	Y2	Z2	X3	Y3	Z3	X4	Y4	Z4	X5	Y5	Z5	X6	Y6	Z6	X7	Y7	Z7	X8	Y8	Z8	X9	Y9	Z9	X10	Y10	Z10	X11	Y11	Z11	X12	Y12	Z12	X13	Y13	Z13	X14	Y14	Z14	X15	Y15	Z15	X16	Y16	Z16	X17	Y17	Z17	X18	Y18	Z18	X19	Y19	Z19	X20	Y20	Z20	X21	Y21	Z21	X22	Y22	Z22	X23	Y23	Z23	X24	Y24	Z24	X25	Y25	Z25	X26	Y26	Z26	X27	Y27	Z27	X28	Y28	Z28	X29	Y29	Z29	X30	Y30	Z30	X31	Y31	Z31	X32	Y32	Z32	X33	Y33	Z33	

71	35.165000000000	822.993761771651	1012.873988070982	400.801194225392	1044.320842713948	1429.786087788715	223.687815503793	1124.224546382825	1362.509389810450	397.056563510878	1024.834416502612	1443.492409296697	558.941729005676	1012.400760381295	1497.022423853557	375.606419745399	1040.729570745146	946.665680300326	539.420672373564	1049.772395410098	960.476097250994	263.881842209490	1099.825550666423	756.947546501317	516.192868252678	1042.299985735960	644.870286071544	590.955150929828	1125.098060400788	595.857904513694	510.341238308812	1151.528547788230	518.694067466095	526.354985037541	1069.279967630342	740.520851754720	294.753727790638	971.355772232603	635.723896619668	223.921179889131	1041.062341946241	549.352450355428	290.710912368261	1031.863888541987	481.816978561829	298.441804296524	1002.496182811915	412.448652327515	288.156660344819	907.055518902269	304.050197338114	235.411925659162	948.814574807146	189.232627780432	305.663575096610	1140.094837961395	435.083940107082	540.374076958423	1095.934970806383	321.432816157077	609.688613015723	1167.303548787048	237.227893000983	556.714895268632	1083.892122170336	45.964265141126	537.004504313664	1246.412749186644	124.257044928170	566.979943604992	1172.505142617463	46.729278893874	605.329232789181	1373.311210904325	91.928291796776	585.324780989760	815.460888774396	38.926119400748	351.541439359096	884.531650034559	35.320204325383	266.720778586918	969.752552657898	95.446870817179	291.110466993828	1096.363556814797	42.397461174173	254.015262808314	1082.378199436213	1090.540444753675	82.949039142778	1262.606540057179	898.888384406291	99.237900927804	908.092625596343	1118.348806668296	678.894632311920	925.862967602598	857.086153327272	694.223629664124	
72	35.178214285714	823.702647221883	1012.326782141445	402.874334796373	1044.710712712275	1429.316937725654	226.198521110285	1124.467055110741	1362.127092951293	399.673322247595	1024.753242136238	1443.095075147002	561.376765574639	1012.484556948111	1496.556200666408	378.019897062060	1041.178114912810	945.916890831970	541.875899018946	1050.611591615721	960.085676674509	266.270589282042	1099.395279439514	755.733404171488	518.859614677426	1040.097590843401	643.037270420086	591.905999927723	1123.611820960133	594.625205913012	511.915035913220	1149.020137064246	517.517015279317	527.041245555711	1068.654964211230	739.588411543938	297.092863087397	970.235644802614	635.472879377737	225.478083798746	1039.250937195623	548.533851938816	292.303254955457	1029.683478491322	480.841425571829	299.647938787403	999.660159948904	411.725058642429	289.213875190445	903.274342435445	304.194138389666	236.139629367947	944.136053155443	188.806802159190	306.045948995595	1137.490489218192	433.330986482840	540.612709954066	1092.383781118273	319.467628041081	608.622949232551	1163.883258187015	235.476575917661	555.770012120140	1080.113018598381	45.404334228880	534.386343219885	1242.739009019853	121.769078696631	565.441970280630	1168.048638234202	45.457389473995	603.417359378729	1369.137074987015	88.428427750265	584.810392836330	810.132675007606	38.834885964561	351.551451716723	879.204572636556	35.257048910481	266.742073179968	964.428140501560	95.403524794383	291.182736499155	1091.044757587545	42.319898194621	254.036145516667	1083.861272130751	1090.034543197531	86.173157661581	1262.017019948589	896.384713535082	102.792945682113	909.155446715072	1117.584827009503	681.401463456034	930.659741204454	856.565256087738	696.757064788635	
73	35.191428571429	824.617219939920	1011.571762492381	405.280496575462	1044.835652942049	1428.824216506151	228.934757557016	1124.615507565798	1361.790045534047	402.463441787107	1024.587514475314	1442.628634023087	564.052601798240	1012.359032075146	1496.011816003401	380.687404065173	1042.032055274475	945.095785792320	544.452872415465	1051.582860716124	959.703242187129	268.795964854512	1099.953180711259	754.790278988462	521.421481734510	1038.937106323031	641.228497732107	592.549250734329	1123.277592880701	593.626575867888	513.291179062329	1147.424178982716	516.084708958335	527.451164786636	1068.290752842235	738.581373005854	299.445821019186	969.333738651842	635.101687218249	227.176020682342	1037.804842867411	547.618376133544	293.897903733088	1027.958981579730	479.680660077833	300.822178906871	997.117812030813	410.837837929115	290.300498293997	899.605013173883	304.295740860954	236.956733441480	939.518900849508	188.270949706814	306.437507150518	1135.165371927716	431.061658872931	540.489060184069	1088.159255963257	317.435996795620	607.261984136053	1158.840203731084	233.027218042000	554.476638090385	1072.910657424913	45.058098389254	531.723681303836	1236.173922670600	118.376905811151	563.655678501069	1160.159839325167	44.023933782994	601.490151898862	1361.840112808599	83.150355716347	584.159757350684	804.775830629561	38.623918463642	351.563715805604	873.862421881266	35.107831044457	266.773608208783	959.075878903504	95.323071199686	291.268987539109	1085.738373417503	42.254757436595	254.049658225864	1084.747926198212	1089.479227934847	89.549531334378	1260.708550114360	893.729676582479	106.365686543039	910.548959996859	1116.614245582239	684.232747002244	936.483166222217	855.981234589528	699.519696709496	
74	35.204642857143	825.725190324233	1010.603302166431	408.004157083553	1044.697372912302	1428.297818016922	231.901146151056	1124.682864969267	1361.486703981601	405.427876912418	1024.354282052333	1442.076266056393	566.977960631657	1012.041425914931	1495.380977524844	383.621344535312	1043.297213147379	944.199023813110	547.127397353740	1052.681885171550	959.331510395425	271.439320749507	1101.401956263990	753.995751105670	523.841903174961	1038.717750284239	639.460623227499	592.956269489834	1123.897574484172	592.770752142948	514.457819962632	1146.559044830805	514.398286620469	527.553152640190	1068.235185188793	737.493856280011	301.757756200962	968.696502663522	634.572939435436	229.015234638857	1036.804577094151	546.582652910496	295.479762897341	1026.789874743201	478.298692116844	301.947884950703	994.941927389615	409.756747116954	291.416078352691	896.099656829473	304.351271971720	237.879940336924	934.991038986617	187.615697966360	306.843473512515	1133.137788627789	428.375452640946	540.059876684240	1083.621257263876	315.343192283142	605.794269030693	1152.692528819954	230.016650932934	552.941493609210	1063.219230807641	44.748679976995	529.269506076761	1227.510621794888	114.417733656559	561.718381514062	1149.868115522302	42.495168262345	599.703167442924	1352.351749958090	76.781476906739	583.305489783851	799.388599804627	38.299302454039	351.573986091322	868.507601563815	34.868477391007	266.816723156082	953.708556625311	95.197873980769	291.367346722512	1080.452040086975	42.192732047588	254.050951361877	1084.982911115175	1088.865234841464	93.034876049057	1258.680275592561	890.976537865797	109.917094952991	912.235071030291	1115.445875020903	687.393866192567	943.247111049499	855.367115540342	702.521593941544	
